<?xml version="1.0" encoding="UTF-8"?>
<svg version="1.1" xmlns="http://www.w3.org/2000/svg" width="2001" height="1701">
<path d="M0 0 C0.91571777 0.00757324 1.83143555 0.01514648 2.77490234 0.02294922 C18.49385932 0.4028217 31.80026347 6.81725142 43.109375 17.609375 C55.28657702 30.96739661 58.62907995 45.62204642 58.0703125 63.171875 C56.88751336 84.07543221 43.04957933 97.12004792 29.125 111.125 C28.32167236 111.93316162 27.51834473 112.74132324 26.69067383 113.57397461 C23.14521732 117.1092566 19.58966397 120.57558955 15.78515625 123.83203125 C10.46850056 128.40590426 5.60770576 133.44705337 0.6875 138.4375 C-9.81834869 149.09333021 -9.81834869 149.09333021 -14.28125 152.90625 C-19.76332077 157.59559771 -24.74975106 162.80595926 -29.8125 167.9375 C-35.46476717 173.66656924 -41.09307137 179.33259328 -47.21679688 184.56445312 C-51.95486276 188.79912711 -56.35072375 193.41509787 -60.8125 197.9375 C-66.46476717 203.66656924 -72.09307137 209.33259328 -78.21679688 214.56445312 C-82.95486276 218.79912711 -87.35072375 223.41509787 -91.8125 227.9375 C-97.46476717 233.66656924 -103.09307137 239.33259328 -109.21679688 244.56445312 C-113.95486276 248.79912711 -118.35072375 253.41509787 -122.8125 257.9375 C-128.46476717 263.66656924 -134.09307137 269.33259328 -140.21679688 274.56445312 C-144.95486276 278.79912711 -149.35072375 283.41509787 -153.8125 287.9375 C-159.58335054 293.78676391 -165.33149938 299.57762902 -171.58691406 304.91699219 C-174.210776 307.22901994 -176.54170919 309.76481468 -178.9375 312.3125 C-190.17404729 323.79304502 -203.15588696 330.66763241 -219.3125 332.4375 C-239.77556194 332.54374643 -254.78966268 323.97831191 -271.82952881 313.44467163 C-284.50124913 305.62308763 -297.36458438 298.20135907 -310.41748047 291.03125 C-313.14035371 289.53226902 -315.85432562 288.01839581 -318.56640625 286.5 C-345.37567238 271.57188273 -372.97613491 258.20118787 -401.3125 246.4375 C-401.97082825 246.16419861 -402.62915649 245.89089722 -403.30743408 245.60931396 C-437.20818212 231.5823111 -471.88361526 219.94321301 -507.3125 210.4375 C-508.52518555 210.11056152 -509.73787109 209.78362305 -510.98730469 209.44677734 C-564.26233936 195.23366904 -619.30147968 187.42360331 -674.3125 184.4375 C-675.33617676 184.37965332 -676.35985352 184.32180664 -677.41455078 184.26220703 C-763.14287314 179.6017062 -847.57334843 189.66314662 -1041.43457031 268.72070312 C-1044.18645464 270.36230904 -1046.94714355 271.98792209 -1049.7109375 273.609375 C-1059.57640202 279.42328533 -1069.15325467 285.52247448 -1078.49365234 292.14794922 C-1080.21538709 293.3686476 -1081.94447613 294.57808726 -1083.67578125 295.78515625 C-1098.31309773 306.05087461 -1112.66307448 316.8879861 -1126.3125 328.4375 C-1127.10116455 329.10096436 -1127.10116455 329.10096436 -1127.90576172 329.77783203 C-1136.06504242 336.6503944 -1143.98498561 343.74033734 -1151.78173828 351.02001953 C-1153.20525588 352.33819229 -1154.6468721 353.63674581 -1156.08984375 354.93359375 C-1162.80212438 360.96805642 -1169.23369905 367.25287121 -1175.625 373.625 C-1176.47328369 374.46869141 -1177.32156738 375.31238281 -1178.19555664 376.18164062 C-1182.54498633 380.54177371 -1186.7454063 384.96863572 -1190.75952148 389.6394043 C-1193.00434887 392.23854809 -1195.34666721 394.73694378 -1197.6875 397.25 C-1201.9812538 401.89788542 -1206.0478184 406.68166348 -1210.015625 411.61328125 C-1212.03790221 414.0998568 -1214.10425688 416.54054082 -1216.19482422 418.96972656 C-1223.25476534 427.19162158 -1229.835424 435.75175849 -1236.3125 444.4375 C-1237.08134521 445.46689697 -1237.08134521 445.46689697 -1237.86572266 446.51708984 C-1244.6781349 455.68371162 -1251.17885363 465.06258229 -1257.55435181 474.53692627 C-1258.33764134 475.70013491 -1259.12302771 476.86193495 -1259.91073608 478.02215576 C-1264.45371917 484.72552648 -1268.44491445 491.4368338 -1271.96020508 498.73095703 C-1273.84368847 502.50064415 -1276.08191239 505.95062794 -1278.4375 509.4375 C-1279.40854423 510.91516156 -1280.37720588 512.39439098 -1281.34375 513.875 C-1281.83617187 514.62910156 -1282.32859375 515.38320313 -1282.8359375 516.16015625 C-1316.31858332 567.80137982 -1340.06653769 626.67808828 -1354.3125 686.4375 C-1354.47665405 687.12509399 -1354.64080811 687.81268799 -1354.80993652 688.52111816 C-1366.6337749 738.39481651 -1373.38409885 790.27529776 -1373.515625 841.55859375 C-1373.52264543 843.25854519 -1373.52973226 844.95849636 -1373.53688049 846.65844727 C-1373.55629249 852.06396867 -1373.56131478 857.46944726 -1373.5625 862.875 C-1373.56294186 863.79568897 -1373.56338371 864.71637794 -1373.56383896 865.66496658 C-1373.5705237 892.21411915 -1373.43451247 918.6298019 -1370.56896973 945.05334473 C-1370.29522112 947.59812535 -1370.03491647 950.14406172 -1369.77636719 952.69042969 C-1363.31291754 1015.82227476 -1350.95932253 1078.25895681 -1330.94342041 1138.53363037 C-1330.34498992 1140.33945821 -1329.75311574 1142.14745487 -1329.16162109 1143.95556641 C-1310.0243274 1202.27833797 -1282.61562062 1256.95430145 -1246.07788086 1306.27270508 C-1243.33558741 1309.98844893 -1240.72467278 1313.76430206 -1238.1875 1317.625 C-1228.5456873 1332.25328554 -1217.37988348 1346.14981266 -1205.5078125 1359.03125 C-1204.30475932 1360.34989904 -1203.10949636 1361.67647158 -1201.95385742 1363.03686523 C-1196.6514336 1369.25571718 -1190.90090761 1375.00068843 -1185.11547852 1380.76489258 C-1183.378564 1382.496447 -1181.64706111 1384.23328359 -1179.91601562 1385.97070312 C-1174.21640603 1391.67409288 -1168.47108437 1397.22586704 -1162.3125 1402.4375 C-1161.10870552 1403.49385122 -1159.90687796 1404.55244812 -1158.70703125 1405.61328125 C-1151.34184108 1412.07802178 -1143.86442722 1418.28561501 -1136.01660156 1424.15869141 C-1134.22012623 1425.50682003 -1132.43389344 1426.86778561 -1130.6484375 1428.23046875 C-1106.08633875 1446.91176524 -1080.29690188 1463.47528529 -1053.3125 1478.4375 C-1052.34715332 1478.97697266 -1051.38180664 1479.51644531 -1050.38720703 1480.07226562 C-979.95406222 1519.31116461 -901.58478341 1546.52861315 -769.375 1564.75 C-768.29549072 1564.82645752 -767.21598145 1564.90291504 -766.10375977 1564.98168945 C-745.89496928 1566.18630732 -726.0878052 1565.30816296 -706 1562.9375 C-704.84863556 1562.80534088 -703.69727112 1562.67318176 -702.51101685 1562.53701782 C-615.44749739 1552.51690825 -528.89273358 1533.87961376 -308.3125 1429.4375 C-306.82310203 1428.37994722 -305.33350923 1427.32266881 -303.84375 1426.265625 C-286.42144785 1413.84754269 -269.81587077 1400.58834115 -254.12890625 1386.03515625 C-251.63647095 1383.73630816 -249.10800699 1381.4895362 -246.5625 1379.25 C-241.94055015 1375.09998344 -237.52452192 1370.75787999 -233.125 1366.375 C-232.45952148 1365.71411377 -231.79404297 1365.05322754 -231.10839844 1364.37231445 C-226.64032598 1359.89035564 -222.43578715 1355.23659435 -218.3125 1350.4375 C-217.36285253 1349.35470216 -216.41237913 1348.27262793 -215.4609375 1347.19140625 C-207.65969181 1338.24787008 -200.39784666 1328.95522374 -193.3125 1319.4375 C-192.76416504 1318.7048291 -192.21583008 1317.9721582 -191.65087891 1317.21728516 C-184.03649499 1307.00886736 -177.06651502 1296.56374113 -170.59472656 1285.59619141 C-169.38238128 1283.55514857 -168.14526664 1281.53182663 -166.8984375 1279.51171875 C-121.04834737 1204.53278565 -101.30630417 1112.79694399 -115.19873047 909.75683594 C-130.75420931 846.79379135 -157.51123481 786.25485474 -195.3125 733.4375 C-195.8605127 732.67163574 -196.40852539 731.90577148 -196.97314453 731.11669922 C-203.59918388 721.90164086 -210.37191146 712.90223883 -217.81640625 704.33203125 C-220.13411686 701.64435744 -222.35330193 698.90192495 -224.5625 696.125 C-236.47057398 681.52115882 -250.0179388 667.22344479 -264.42578125 655.05078125 C-266.59273468 653.19787904 -268.66185574 651.25373964 -270.75 649.3125 C-277.17769502 643.52169549 -284.06813988 638.35925454 -290.98876953 633.17871094 C-293.32019431 631.43173452 -295.64243846 629.67300375 -297.96484375 627.9140625 C-329.21455064 604.39808201 -363.93466251 585.69756535 -400.3125 571.4375 C-401.27397949 571.05883789 -402.23545898 570.68017578 -403.22607422 570.29003906 C-448.11993065 552.82921381 -496.31798512 543.37422731 -544.3125 540.4375 C-545.36244141 540.36901855 -546.41238281 540.30053711 -547.49414062 540.22998047 C-597.39532735 537.13908607 -647.01329152 544.44043552 -694.3125 560.4375 C-695.34826172 560.78651367 -696.38402344 561.13552734 -697.45117188 561.49511719 C-731.42296064 573.1321678 -763.84672141 590.57041168 -792.3125 612.4375 C-792.94961914 612.92057617 -793.58673828 613.40365234 -794.24316406 613.90136719 C-801.33233196 619.28327294 -808.10499368 624.88066131 -814.6171875 630.953125 C-816.7396854 632.90951437 -818.88851505 634.8037845 -821.07421875 636.6875 C-825.64681792 640.67590614 -829.96289313 644.89582461 -834.25 649.1875 C-835.04341797 649.98172363 -835.83683594 650.77594727 -836.65429688 651.59423828 C-842.28568248 657.28471868 -847.3873039 663.12588059 -852.3125 669.4375 C-853.89261808 671.29440747 -855.47614866 673.14841476 -857.0625 675 C-873.1108517 694.33715104 -886.78827295 715.84190831 -897.43847656 738.60986328 C-898.31300456 740.43855507 -899.23861264 742.23211478 -900.1796875 744.02734375 C-914.35839083 771.66793022 -923.37735044 804.47211922 -923.515625 835.53125 C-923.52259399 836.58374939 -923.52956299 837.63624878 -923.53674316 838.72064209 C-923.55413143 842.12630212 -923.56047017 845.53179734 -923.5625 848.9375 C-923.56350708 850.10099976 -923.56451416 851.26449951 -923.56555176 852.46325684 C-923.55434183 871.62629712 -922.84926845 890.43204161 -920.3125 909.4375 C-920.16796387 910.52224609 -920.02342773 911.60699219 -919.87451172 912.72460938 C-914.09079836 954.25461759 -901.39586741 995.43552318 -873.3125 1027.4375 C-872.56097656 1028.31019531 -871.80945312 1029.18289063 -871.03515625 1030.08203125 C-866.44627095 1035.31414492 -861.74819253 1040.0924082 -856.3125 1044.4375 C-855.78333984 1044.86256836 -855.25417969 1045.28763672 -854.70898438 1045.72558594 C-831.30095989 1064.36246664 -804.42162138 1076.63229739 -776.3125 1086.4375 C-775.30558105 1086.79134766 -774.29866211 1087.14519531 -773.26123047 1087.50976562 C-757.07778748 1093.12762589 -740.62663856 1097.60209043 -724.0625 1101.9375 C-723.04387878 1102.20511139 -722.02525757 1102.47272278 -720.97576904 1102.7484436 C-718.042845 1103.51615924 -715.10789262 1104.27546056 -712.171875 1105.03125 C-710.85780167 1105.3743647 -710.85780167 1105.3743647 -709.5171814 1105.72441101 C-664.89845147 1117.07903017 -606.22431702 1103.63972602 -566.75 1081.4375 C-557.22196649 1075.74323145 -548.68890176 1069.02573108 -540.56640625 1061.48046875 C-538.3125 1059.4375 -538.3125 1059.4375 -535.796875 1057.49609375 C-533.14751454 1055.30079035 -531.14344804 1053.00062679 -529 1050.3125 C-524.3334857 1044.46205951 -524.3334857 1044.46205951 -522.33984375 1042.12890625 C-509.40173581 1026.7997722 -499.8339445 1007.85807346 -491.8125 989.5625 C-491.30456909 988.44016968 -491.30456909 988.44016968 -490.78637695 987.29516602 C-482.52144253 967.78769452 -486.26146783 939.19746684 -491.921875 919.4375 C-495.90287109 910.84928371 -502.25326314 907.46212646 -510.5625 903.5 C-528.23402492 895.01073803 -539.82764174 884.1479868 -547.34765625 865.9296875 C-552.22254701 851.46373259 -550.10653288 835.19128805 -544.02734375 821.5546875 C-536.25211183 806.00422366 -523.47201887 797.04008391 -507.3125 791.4375 C-493.94051718 787.7905956 -478.71159638 789.79137489 -466.3125 795.4375 C-465.55646484 795.77571777 -464.80042969 796.11393555 -464.02148438 796.46240234 C-427.50285641 813.07969169 -398.17363898 839.58467964 -383.47045898 877.44238281 C-373.93489047 902.99021951 -371.09179596 929.07147857 -371.125 956.1875 C-371.12560425 957.09457703 -371.1262085 958.00165405 -371.12683105 958.93621826 C-371.14622245 969.66226057 -371.22706082 980.36386401 -372.0625 991.0625 C-372.15494995 992.35172363 -372.15494995 992.35172363 -372.24926758 993.66699219 C-373.50246355 1006.97715671 -378.1345269 1019.32276215 -383.375 1031.5 C-383.66006409 1032.16936584 -383.94512817 1032.83873169 -384.23883057 1033.52838135 C-401.1609357 1073.23110222 -423.63378077 1108.15026357 -453.3125 1139.4375 C-454.09496094 1140.2625 -454.87742187 1141.0875 -455.68359375 1141.9375 C-460.69534422 1147.0832545 -466.01677883 1151.70553475 -471.66503906 1156.140625 C-472.82243778 1157.05172488 -473.97502764 1157.96895075 -475.12402344 1158.890625 C-499.42850473 1178.36371472 -526.19124003 1192.61271299 -555.3125 1203.4375 C-556.21758301 1203.77410645 -557.12266602 1204.11071289 -558.05517578 1204.45751953 C-597.67192431 1218.94529392 -640.38145629 1223.66958285 -682.3125 1224.4375 C-683.13057129 1224.45409668 -683.94864258 1224.47069336 -684.79150391 1224.48779297 C-689.30285983 1224.56901542 -693.80161518 1224.51966906 -698.3125 1224.4375 C-700.15038086 1224.43411621 -700.15038086 1224.43411621 -702.02539062 1224.43066406 C-716.2165543 1224.1833192 -729.51690248 1220.61370031 -743.1875 1217.0625 C-745.69273047 1216.42245687 -748.1980208 1215.78264798 -750.70336914 1215.14306641 C-770.09210003 1210.15741294 -789.33691384 1204.82661094 -808.3125 1198.4375 C-809.01340759 1198.20158142 -809.71431519 1197.96566284 -810.4364624 1197.72259521 C-829.95044364 1191.12139204 -848.83471806 1183.59482155 -867.3125 1174.4375 C-868.25013184 1173.9748877 -869.18776367 1173.51227539 -870.15380859 1173.03564453 C-894.29770025 1161.02127555 -916.03118503 1146.16686143 -936.3125 1128.4375 C-937.17230469 1127.68984375 -938.03210938 1126.9421875 -938.91796875 1126.171875 C-949.28231744 1117.01038395 -958.81023218 1107.36305262 -967.3125 1096.4375 C-968.32026145 1095.17053231 -969.32807757 1093.9036081 -970.3359375 1092.63671875 C-1009.47779199 1042.97343015 -1028.36407549 982.4645818 -1036.3125 920.4375 C-1036.47911133 919.13973633 -1036.64572266 917.84197266 -1036.81738281 916.50488281 C-1039.43135964 894.70009476 -1039.62272264 872.8222645 -1039.68041611 850.8896637 C-1039.68739455 848.65871238 -1039.69905754 846.42782576 -1039.71157837 844.19689941 C-1039.79757182 826.42580784 -1039.20966577 809.01776814 -1036.3125 791.4375 C-1036.19672607 790.72506134 -1036.08095215 790.01262268 -1035.96166992 789.27859497 C-1035.28344928 785.20417314 -1034.48847837 781.16383095 -1033.625 777.125 C-1033.37153809 775.92552734 -1033.11807617 774.72605469 -1032.85693359 773.49023438 C-1016.05020205 696.50391042 -973.13487431 623.27247275 -917.0078125 568.16796875 C-915.10672399 566.27960995 -915.10672399 566.27960995 -912.8125 563.375 C-910.19910191 560.30425724 -907.40227659 557.82104824 -904.33984375 555.21484375 C-902.46214868 553.56869489 -900.73122302 551.86014884 -899 550.0625 C-895.36761885 546.37285158 -891.4044595 543.17732703 -887.37109375 539.9375 C-885.26396849 538.21520094 -883.20159197 536.48321314 -881.16015625 534.6875 C-867.15126638 522.37005387 -852.01968214 511.48352859 -836.3125 501.4375 C-835.17337158 500.70563477 -835.17337158 500.70563477 -834.01123047 499.95898438 C-775.25592894 462.38740793 -709.33188238 438.12529713 -640.3125 428.4375 C-639.25724121 428.28587402 -638.20198242 428.13424805 -637.11474609 427.97802734 C-555.57589417 416.54590822 -469.48571723 426.45994715 -304.3125 487.4375 C-302.93215576 488.12972656 -302.93215576 488.12972656 -301.52392578 488.8359375 C-265.97552886 506.79723278 -232.70044784 529.76714286 -202.3125 555.4375 C-201.70067871 555.95022461 -201.08885742 556.46294922 -200.45849609 556.99121094 C-186.418703 568.76059298 -173.27895824 581.38228129 -160.3125 594.3125 C-159.76975433 594.85256683 -159.22700867 595.39263367 -158.66781616 595.94906616 C-152.66290912 601.93146972 -146.79919683 607.96971484 -141.3125 614.4375 C-140.27927917 615.61758278 -139.24413594 616.79598531 -138.20703125 617.97265625 C-125.4402593 632.5527155 -113.67023191 647.73806746 -102.3125 663.4375 C-101.78624023 664.16227539 -101.25998047 664.88705078 -100.71777344 665.63378906 C-81.83485163 691.7102049 -65.74993921 719.68525256 -51.3125 748.4375 C-50.79478027 749.46359375 -50.27706055 750.4896875 -49.74365234 751.546875 C-15.77495104 819.25720031 4.82001518 893.18500766 12.6875 968.4375 C12.86539062 970.0781543 12.86539062 970.0781543 13.046875 971.75195312 C17.19892956 1011.86376588 16.02513512 1053.38677356 11.6875 1093.4375 C11.60264343 1094.2232843 11.51778687 1095.0090686 11.43035889 1095.81866455 C4.03507008 1163.35154217 -13.3292547 1228.48297367 -41.3125 1290.4375 C-41.7544873 1291.42073242 -42.19647461 1292.40396484 -42.65185547 1293.41699219 C-48.63744591 1306.64091671 -55.50433423 1319.27182285 -62.79443359 1331.81884766 C-64.14377356 1334.14644824 -65.47573394 1336.48274137 -66.80078125 1338.82421875 C-85.18626909 1371.04882485 -107.90534147 1401.36795851 -132.89379883 1428.78344727 C-134.48711132 1430.53179693 -136.07578129 1432.28439049 -137.65942383 1434.04150391 C-144.45979808 1441.54244378 -151.49456723 1448.774895 -158.66577148 1455.92114258 C-160.51208246 1457.76204708 -162.35292273 1459.60830272 -164.19335938 1461.45507812 C-170.06333096 1467.32869995 -175.95178163 1473.09034768 -182.3125 1478.4375 C-183.43103638 1479.40990892 -184.54825093 1480.38384064 -185.6640625 1481.359375 C-193.07709726 1487.78027248 -200.64215538 1493.95056704 -208.39941406 1499.94970703 C-210.43994394 1501.53661222 -212.46668439 1503.14005982 -214.4921875 1504.74609375 C-230.77482826 1517.61185936 -247.76841371 1529.3634915 -265.3125 1540.4375 C-266.09641113 1540.93572266 -266.88032227 1541.43394531 -267.68798828 1541.94726562 C-339.58078674 1587.55652271 -419.6836156 1620.12246184 -549.40087891 1654.26513672 C-552.75005745 1655.061578 -556.09543652 1655.87206698 -559.43896484 1656.69189453 C-571.91575988 1659.73600732 -584.43601402 1662.3448314 -597.0625 1664.6875 C-598.07561249 1664.87625702 -599.08872498 1665.06501404 -600.13253784 1665.25949097 C-695.28094575 1682.91724779 -791.63749188 1693.18176708 -888.25 1698.125 C-890.03278854 1698.21640762 -890.03278854 1698.21640762 -891.85159302 1698.30966187 C-920.34350391 1699.75128257 -948.7887033 1700.59742651 -977.31640625 1700.60546875 C-978.69061742 1700.60690246 -980.06482843 1700.60850058 -981.43903923 1700.61025429 C-988.65312989 1700.61941552 -995.86720254 1700.62360211 -1003.08129883 1700.62280273 C-1008.90261624 1700.62227384 -1014.72386584 1700.62925618 -1020.54516602 1700.64331055 C-1070.80545414 1700.7618641 -1120.98829519 1699.71466013 -1171.15625 1696.40625 C-1172.25094604 1696.33442505 -1173.34564209 1696.2626001 -1174.47351074 1696.18859863 C-1270.72463623 1689.73303655 -1366.72361567 1678.02349868 -1558.3125 1637.4375 C-1559.18610168 1637.21727173 -1560.05970337 1636.99704346 -1560.95977783 1636.7701416 C-1630.45091049 1619.24459092 -1698.90634552 1597.45087545 -1765.3125 1570.4375 C-1766.27295227 1570.04751831 -1766.27295227 1570.04751831 -1767.25280762 1569.6496582 C-1798.1275585 1557.09977211 -1828.23241952 1543.10789551 -1858.0625 1528.25 C-1859.14880707 1527.7108194 -1860.23511414 1527.17163879 -1861.3543396 1526.61611938 C-1875.78602097 1519.44091266 -1889.92713227 1511.87655143 -1903.89093018 1503.82818604 C-1906.85919293 1502.12353911 -1909.84230228 1500.44625054 -1912.82963562 1498.77529907 C-1926.60401635 1490.90900745 -1936.1812525 1479.41074849 -1941.3125 1464.375 C-1944.24423102 1451.44089257 -1943.62972932 1436.5815821 -1938.3125 1424.4375 C-1937.74595703 1423.09945313 -1937.74595703 1423.09945313 -1937.16796875 1421.734375 C-1933.19382696 1413.52194907 -1927.06072904 1407.06125284 -1921.01171875 1400.34277344 C-1918.34951118 1397.35773495 -1915.77328662 1394.30115193 -1913.1875 1391.25 C-1908.50193456 1385.75485027 -1903.67189876 1380.41104248 -1898.76953125 1375.109375 C-1896.14472241 1372.25505188 -1893.58811322 1369.35034952 -1891.046875 1366.421875 C-1886.75570048 1361.5121528 -1882.35447892 1356.69875182 -1877.984375 1351.859375 C-1874.58905062 1348.0944915 -1871.20191658 1344.32556449 -1867.875 1340.5 C-1864.22312947 1336.30585635 -1860.46983816 1332.20655708 -1856.72265625 1328.09765625 C-1854.13941602 1325.24646241 -1851.60371068 1322.35866663 -1849.08203125 1319.453125 C-1847.06135044 1317.15142236 -1844.99937382 1314.88985621 -1842.9375 1312.625 C-1839.82721149 1309.18371795 -1836.84771688 1305.67428702 -1833.9375 1302.0625 C-1830.69297268 1298.0492345 -1827.32500676 1294.21336874 -1823.8125 1290.4375 C-1819.5785379 1285.88155527 -1815.58318335 1281.18478841 -1811.68359375 1276.33984375 C-1808.99418829 1273.04786968 -1806.22079604 1269.83745032 -1803.4375 1266.625 C-1797.97146009 1260.29270971 -1792.77989634 1253.77767013 -1787.65820312 1247.16552734 C-1786.3399787 1245.4727856 -1785.00875598 1243.79131445 -1783.671875 1242.11328125 C-1775.95537447 1232.41452141 -1768.58786787 1222.47039954 -1761.3125 1212.4375 C-1760.80074219 1211.73254395 -1760.28898437 1211.02758789 -1759.76171875 1210.30126953 C-1746.73200614 1192.28227712 -1734.65246621 1173.56199747 -1723.3125 1154.4375 C-1722.86406738 1153.68484863 -1722.41563477 1152.93219727 -1721.95361328 1152.15673828 C-1709.92104364 1131.85680647 -1698.91354505 1110.75719365 -1689.10498047 1089.29125977 C-1686.70077912 1084.09784494 -1683.97314692 1079.12227306 -1681.1875 1074.125 C-1666.58067591 1047.80607069 -1653.46434127 1020.5356608 -1641.00732422 993.14355469 C-1639.08173623 988.92071112 -1637.12034983 984.71467497 -1635.16015625 980.5078125 C-1625.41621906 959.57278425 -1615.9997944 938.51127749 -1606.76968384 917.34518433 C-1602.78735381 908.21962995 -1598.75534932 899.11619118 -1594.72332764 890.01251221 C-1588.49851278 875.95566717 -1582.3149455 861.883186 -1576.2199707 847.76953125 C-1569.05629582 831.19295127 -1561.77802499 814.66646761 -1554.50183105 798.13903809 C-1553.71011541 796.34067424 -1552.91852973 794.54225318 -1552.1270752 792.74377441 C-1536.43027715 757.0754089 -1520.67588421 721.43307386 -1504.07080078 686.17626953 C-1502.54696165 682.93921952 -1501.03138454 679.69836401 -1499.51779175 676.45651245 C-1482.02322886 638.99106361 -1464.21665018 601.54869929 -1444.72167969 565.07617188 C-1443.08247043 562.00677242 -1441.45175725 558.9329082 -1439.8203125 555.859375 C-1432.42983562 541.95838923 -1424.87701779 528.16232347 -1417.06054688 514.49511719 C-1415.48142539 511.73297788 -1413.90631934 508.96858608 -1412.33280945 506.20324707 C-1405.58398129 494.34361627 -1398.81511498 482.49770205 -1391.859375 470.7578125 C-1389.89087113 467.43100925 -1387.94984897 464.08903457 -1386.015625 460.7421875 C-1365.28066488 424.89656798 -1342.29459235 390.17901184 -1316.18359375 357.99609375 C-1313.77068299 355.02101482 -1311.41614954 352.00487015 -1309.07250977 348.97509766 C-1304.52138846 343.10107859 -1299.77463193 337.53300311 -1294.7109375 332.0859375 C-1292.30093721 329.42473197 -1290.05212366 326.68042333 -1287.8125 323.875 C-1284.1033101 319.27455598 -1280.12566126 315.11311461 -1275.8671875 311.01953125 C-1273.85620506 308.98702453 -1272.00058398 306.94094273 -1270.14282227 304.77441406 C-1266.41600883 300.49934908 -1262.48773847 296.46801732 -1258.47265625 292.46484375 C-1257.38397499 291.3747274 -1257.38397499 291.3747274 -1256.27330017 290.2625885 C-1254.74926444 288.73787704 -1253.22398431 287.2144085 -1251.69750977 285.69213867 C-1249.38117537 283.38116109 -1247.07022922 281.06489229 -1244.75976562 278.74804688 C-1243.26854966 277.2574918 -1241.77702347 275.767247 -1240.28515625 274.27734375 C-1239.60469742 273.59486069 -1238.92423859 272.91237762 -1238.22315979 272.20921326 C-1234.29230618 268.29720458 -1230.25883531 264.56104259 -1226.0557251 260.94261169 C-1223.65429025 258.86919749 -1221.33031117 256.71522914 -1219 254.5625 C-1214.51587072 250.47312213 -1209.90982762 246.59130979 -1205.1875 242.78125 C-1202.61874533 240.68715652 -1200.09177658 238.55536659 -1197.57446289 236.40039062 C-1191.22274502 230.96661677 -1184.72347995 225.78159388 -1178.04882812 220.74853516 C-1176.24149644 219.38388792 -1174.44098186 218.01055128 -1172.640625 216.63671875 C-1156.69307776 204.51690724 -1140.25365335 193.12220823 -1123.3125 182.4375 C-1122.5179541 181.93395996 -1121.7234082 181.43041992 -1120.90478516 180.91162109 C-1071.05037046 149.38532229 -1018.08179928 124.49999951 -962.3125 105.4375 C-961.19762207 105.0549707 -960.08274414 104.67244141 -958.93408203 104.27832031 C-879.13726399 77.135601 -794.84481224 66.6090251 -702.74768066 67.40753174 C-700.5424178 67.43467054 -698.33715177 67.45769306 -696.13183594 67.47998047 C-626.13220372 68.36065029 -556.18210279 78.63629824 -488.3125 95.4375 C-487.21992889 95.7069342 -487.21992889 95.7069342 -486.10528564 95.98181152 C-437.5527184 107.98448986 -390.08672037 124.29344443 -344.3125 144.4375 C-343.66637756 144.72091248 -343.02025513 145.00432495 -342.35455322 145.29632568 C-304.55088475 161.89235077 -268.06286147 180.80336003 -232.3125 201.4375 C-225.11402806 195.50295729 -218.6828374 188.86219625 -212.13867188 182.22460938 C-208.30970628 178.36237254 -204.50775215 174.53013046 -200.37109375 170.99609375 C-194.88149818 166.29538883 -189.88446592 161.07838296 -184.8125 155.9375 C-179.16023283 150.20843076 -173.53192863 144.54240672 -167.40820312 139.31054688 C-162.67013724 135.07587289 -158.27427625 130.45990213 -153.8125 125.9375 C-148.16023283 120.20843076 -142.53192863 114.54240672 -136.40820312 109.31054688 C-131.67013724 105.07587289 -127.27427625 100.45990213 -122.8125 95.9375 C-117.16023283 90.20843076 -111.53192863 84.54240672 -105.40820312 79.31054688 C-100.67013724 75.07587289 -96.27427625 70.45990213 -91.8125 65.9375 C-86.1500977 60.1981579 -80.51173208 54.52060033 -74.37695312 49.27929688 C-69.82057878 45.21433849 -65.5982743 40.78445803 -61.3125 36.4375 C-55.69606729 30.74088709 -50.08940718 25.09536494 -44.00195312 19.89501953 C-41.77348289 17.9724809 -39.6823269 15.91589718 -37.5625 13.875 C-27.1097327 4.46430306 -13.95537159 -0.1634483 0 0 Z M-1488.3125 934.4375 C-1488.78969482 935.52764404 -1489.26688965 936.61778809 -1489.75854492 937.7409668 C-1499.51224939 960.01708679 -1509.27550862 982.28717076 -1519.3125 1004.4375 C-1519.61202576 1005.09864807 -1519.91155151 1005.75979614 -1520.22015381 1006.440979 C-1529.80973249 1027.59773441 -1539.57599057 1048.66761538 -1549.52294922 1069.65869141 C-1551.15710349 1073.10731063 -1552.78381657 1076.55940687 -1554.41015625 1080.01171875 C-1555.33548508 1081.96636007 -1556.26123241 1083.92080336 -1557.1875 1085.875 C-1557.56688721 1086.68227539 -1557.94627441 1087.48955078 -1558.3371582 1088.32128906 C-1561.47719951 1094.91331828 -1564.88089831 1101.35850327 -1568.29347229 1107.8119812 C-1573.14958373 1117.00100244 -1577.89108074 1126.24759706 -1582.625 1135.5 C-1583.30840454 1136.83354523 -1583.30840454 1136.83354523 -1584.00561523 1138.19403076 C-1588.98182319 1147.90432449 -1593.92646538 1157.62707945 -1598.7565918 1167.41088867 C-1605.1513044 1180.36386921 -1612.04528718 1192.95470992 -1619.3125 1205.4375 C-1619.84343262 1206.3548291 -1620.37436523 1207.2721582 -1620.92138672 1208.21728516 C-1636.01767113 1234.26514592 -1652.57111005 1259.13346424 -1670.3125 1283.4375 C-1670.89467285 1284.23655762 -1671.4768457 1285.03561523 -1672.07666016 1285.85888672 C-1679.62664075 1296.21096451 -1687.28552892 1306.44997364 -1695.3125 1316.4375 C-1695.8266748 1317.0778418 -1696.34084961 1317.71818359 -1696.87060547 1318.37792969 C-1702.96436288 1325.95256716 -1709.12990437 1333.45959982 -1715.43408203 1340.86010742 C-1718.22899551 1344.14359582 -1720.97349412 1347.46193637 -1723.6875 1350.8125 C-1730.88874078 1359.65273285 -1738.39173161 1368.25233686 -1746.0625 1376.6875 C-1748.97545733 1379.89490789 -1751.73470501 1383.17647059 -1754.4375 1386.5625 C-1758.96495123 1392.16601799 -1763.85600093 1397.38690933 -1768.82080078 1402.60400391 C-1772.5491756 1406.52595792 -1776.16876776 1410.51718888 -1779.71435547 1414.60522461 C-1782.50984806 1417.81026157 -1785.41074761 1420.91969453 -1788.296875 1424.04296875 C-1790.27533121 1426.39334405 -1791.81121416 1428.76274074 -1793.3125 1431.4375 C-1756.45725049 1450.67152 -1717.33792073 1466.23449296 -1678.3125 1480.4375 C-1677.30911591 1480.80300964 -1677.30911591 1480.80300964 -1676.28546143 1481.17590332 C-1578.85410874 1516.59878475 -1478.00933961 1540.67347785 -1217.3125 1577.4375 C-1216.27875244 1577.52753296 -1215.24500488 1577.61756592 -1214.17993164 1577.71032715 C-1187.75018118 1579.99820548 -1161.29862182 1581.76873656 -1134.80703735 1583.14595795 C-1132.82238351 1583.24948444 -1130.83782696 1583.35487064 -1128.85327148 1583.46026611 C-1125.16291958 1583.65394474 -1121.47224487 1583.8385672 -1117.78125 1584.01953125 C-1116.67652344 1584.07759445 -1115.57179688 1584.13565765 -1114.43359375 1584.19548035 C-1113.41845703 1584.24287857 -1112.40332031 1584.29027679 -1111.35742188 1584.33911133 C-1110.03381653 1584.40428703 -1110.03381653 1584.40428703 -1108.68347168 1584.47077942 C-1106.38516314 1584.43851991 -1104.50605372 1584.09653169 -1102.3125 1583.4375 C-1102.8887915 1583.11700684 -1103.46508301 1582.79651367 -1104.05883789 1582.46630859 C-1145.25944145 1559.49990689 -1185.19259019 1533.90142393 -1221.3125 1503.4375 C-1222.31925781 1502.591875 -1223.32601562 1501.74625 -1224.36328125 1500.875 C-1227.11363267 1498.55963619 -1229.85344086 1496.23212797 -1232.59033203 1493.90087891 C-1234.36716081 1492.39105303 -1236.1500854 1490.88864564 -1237.93359375 1489.38671875 C-1243.96927284 1484.28427527 -1249.78728465 1479.11931725 -1255.3046875 1473.44921875 C-1257.23831646 1471.51182787 -1259.23457277 1469.71799843 -1261.3125 1467.9375 C-1267.92135421 1462.24836705 -1273.89526044 1456.01649764 -1279.56640625 1449.40234375 C-1281.40865675 1447.32929676 -1283.33651662 1445.38314198 -1285.3125 1443.4375 C-1289.19260924 1439.60190444 -1292.77534292 1435.58889394 -1296.3125 1431.4375 C-1297.11300781 1430.51453125 -1297.91351562 1429.5915625 -1298.73828125 1428.640625 C-1306.31179701 1419.86032488 -1313.36474462 1410.7175477 -1320.3125 1401.4375 C-1320.910625 1400.63908691 -1321.50875 1399.84067383 -1322.125 1399.01806641 C-1328.36250061 1390.67111446 -1334.50504429 1382.30837963 -1340.19921875 1373.578125 C-1342.92982703 1369.52006759 -1345.80738061 1365.57772413 -1348.6875 1361.625 C-1359.04739992 1347.35640359 -1368.40530939 1332.65511405 -1377.3125 1317.4375 C-1377.81620117 1316.5825293 -1378.31990234 1315.72755859 -1378.83886719 1314.84667969 C-1402.00446603 1275.36894671 -1420.06085759 1233.5282031 -1435.3125 1190.4375 C-1435.53703857 1189.80513428 -1435.76157715 1189.17276855 -1435.99291992 1188.52124023 C-1463.33555269 1111.36688955 -1478.26748524 1030.66802042 -1485.85107422 949.34082031 C-1486.31464114 944.37065181 -1486.80991149 939.40385828 -1487.3125 934.4375 C-1487.6425 934.4375 -1487.9725 934.4375 -1488.3125 934.4375 Z " fill="#000000" transform="translate(1943.3125,0.5625)"/>
</svg>
